<mxfile host="Electron" modified="2020-07-22T03:23:06.690Z" agent="5.0 (X11; Linux x86_64) AppleWebKit/537.36 (KHTML, like Gecko) draw.io/13.3.9 Chrome/83.0.4103.119 Electron/9.0.5 Safari/537.36" etag="40dDdwI-3cjhQDOgxnKx" compressed="false" version="13.3.9" type="device">
  <diagram id="FIjfBvTQCmwyciMDhMRC" name="Page-1">
    <mxGraphModel dx="692" dy="424" grid="1" gridSize="10" guides="0" tooltips="1" connect="1" arrows="1" fold="1" page="1" pageScale="1" pageWidth="850" pageHeight="1100" math="0" shadow="0">
      <root>
        <mxCell id="0" />
        <mxCell id="1" parent="0" />
        <mxCell id="k97HtYrhLEBqJq5wz5jM-16" value="&lt;span style=&quot;font-size: 11px ; background-color: rgb(255 , 255 , 255)&quot;&gt;load from fixed&lt;br&gt;position&amp;nbsp;&lt;/span&gt;&lt;span style=&quot;font-size: 11px ; background-color: rgb(255 , 255 , 255)&quot;&gt;on the boot device&lt;/span&gt;" style="text;html=1;align=center;verticalAlign=middle;resizable=0;points=[];autosize=1;" vertex="1" parent="1">
          <mxGeometry x="140" y="70" width="150" height="30" as="geometry" />
        </mxCell>
        <mxCell id="k97HtYrhLEBqJq5wz5jM-1" value="hardware" style="rounded=0;whiteSpace=wrap;html=1;fillColor=#f5f5f5;strokeColor=#666666;fontColor=#333333;" vertex="1" parent="1">
          <mxGeometry x="80" y="80" width="60" height="40" as="geometry" />
        </mxCell>
        <mxCell id="k97HtYrhLEBqJq5wz5jM-2" value="OS loader" style="rounded=0;whiteSpace=wrap;html=1;fillColor=#f5f5f5;strokeColor=#666666;fontColor=#333333;" vertex="1" parent="1">
          <mxGeometry x="300" y="80" width="60" height="40" as="geometry" />
        </mxCell>
        <mxCell id="k97HtYrhLEBqJq5wz5jM-14" style="edgeStyle=orthogonalEdgeStyle;rounded=0;orthogonalLoop=1;jettySize=auto;html=1;fillColor=#f5f5f5;strokeColor=#666666;" edge="1" parent="1" source="k97HtYrhLEBqJq5wz5jM-3" target="k97HtYrhLEBqJq5wz5jM-4">
          <mxGeometry relative="1" as="geometry" />
        </mxCell>
        <mxCell id="k97HtYrhLEBqJq5wz5jM-3" value="kernel" style="rounded=0;whiteSpace=wrap;html=1;fillColor=#dae8fc;strokeColor=#6c8ebf;" vertex="1" parent="1">
          <mxGeometry x="520" y="80" width="60" height="40" as="geometry" />
        </mxCell>
        <mxCell id="k97HtYrhLEBqJq5wz5jM-15" style="edgeStyle=orthogonalEdgeStyle;rounded=0;orthogonalLoop=1;jettySize=auto;html=1;fillColor=#f5f5f5;strokeColor=#666666;" edge="1" parent="1" source="k97HtYrhLEBqJq5wz5jM-4" target="k97HtYrhLEBqJq5wz5jM-5">
          <mxGeometry relative="1" as="geometry" />
        </mxCell>
        <mxCell id="k97HtYrhLEBqJq5wz5jM-4" value="root user-space process" style="rounded=0;whiteSpace=wrap;html=1;fillColor=#f5f5f5;strokeColor=#666666;fontColor=#333333;" vertex="1" parent="1">
          <mxGeometry x="620" y="80" width="60" height="40" as="geometry" />
        </mxCell>
        <mxCell id="k97HtYrhLEBqJq5wz5jM-5" value="boot scripts" style="rounded=0;whiteSpace=wrap;html=1;fillColor=#f5f5f5;strokeColor=#666666;fontColor=#333333;" vertex="1" parent="1">
          <mxGeometry x="720" y="80" width="60" height="40" as="geometry" />
        </mxCell>
        <mxCell id="k97HtYrhLEBqJq5wz5jM-6" value="hard reset" style="endArrow=classic;html=1;fillColor=#f5f5f5;strokeColor=#666666;" edge="1" parent="1" target="k97HtYrhLEBqJq5wz5jM-1">
          <mxGeometry x="-1" width="50" height="50" relative="1" as="geometry">
            <mxPoint x="40" y="100" as="sourcePoint" />
            <mxPoint x="80" y="170" as="targetPoint" />
            <mxPoint as="offset" />
          </mxGeometry>
        </mxCell>
        <mxCell id="k97HtYrhLEBqJq5wz5jM-8" value="" style="endArrow=classic;html=1;fillColor=#f5f5f5;strokeColor=#666666;" edge="1" parent="1" source="k97HtYrhLEBqJq5wz5jM-1" target="k97HtYrhLEBqJq5wz5jM-2">
          <mxGeometry width="50" height="50" relative="1" as="geometry">
            <mxPoint x="180" y="210" as="sourcePoint" />
            <mxPoint x="230" y="160" as="targetPoint" />
          </mxGeometry>
        </mxCell>
        <mxCell id="k97HtYrhLEBqJq5wz5jM-9" value="BIOS" style="rounded=1;whiteSpace=wrap;html=1;fillColor=#f5f5f5;strokeColor=#666666;fontColor=#333333;" vertex="1" parent="1">
          <mxGeometry x="90" y="50" width="40" height="20" as="geometry" />
        </mxCell>
        <mxCell id="k97HtYrhLEBqJq5wz5jM-11" value="lilo" style="rounded=1;whiteSpace=wrap;html=1;fillColor=#f5f5f5;strokeColor=#666666;fontColor=#333333;" vertex="1" parent="1">
          <mxGeometry x="310" y="50" width="40" height="20" as="geometry" />
        </mxCell>
        <mxCell id="k97HtYrhLEBqJq5wz5jM-12" value="grub" style="rounded=1;whiteSpace=wrap;html=1;fillColor=#f5f5f5;strokeColor=#666666;fontColor=#333333;" vertex="1" parent="1">
          <mxGeometry x="310" y="20" width="40" height="20" as="geometry" />
        </mxCell>
        <mxCell id="k97HtYrhLEBqJq5wz5jM-13" value="" style="endArrow=classic;html=1;fillColor=#dae8fc;strokeColor=#6c8ebf;" edge="1" parent="1" source="k97HtYrhLEBqJq5wz5jM-2" target="k97HtYrhLEBqJq5wz5jM-3">
          <mxGeometry width="50" height="50" relative="1" as="geometry">
            <mxPoint x="360" y="200" as="sourcePoint" />
            <mxPoint x="410" y="150" as="targetPoint" />
          </mxGeometry>
        </mxCell>
        <mxCell id="k97HtYrhLEBqJq5wz5jM-17" value="linux" style="rounded=1;whiteSpace=wrap;html=1;fillColor=#dae8fc;strokeColor=#6c8ebf;" vertex="1" parent="1">
          <mxGeometry x="530" y="50" width="40" height="20" as="geometry" />
        </mxCell>
        <mxCell id="k97HtYrhLEBqJq5wz5jM-19" value="/etc/inittab&lt;br&gt;/sbin/init" style="rounded=1;whiteSpace=wrap;html=1;fillColor=#f5f5f5;strokeColor=#666666;fontColor=#333333;" vertex="1" parent="1">
          <mxGeometry x="620" y="40" width="60" height="30" as="geometry" />
        </mxCell>
        <mxCell id="k97HtYrhLEBqJq5wz5jM-21" value="/etc/init.d" style="rounded=1;whiteSpace=wrap;html=1;fillColor=#f5f5f5;strokeColor=#666666;fontColor=#333333;" vertex="1" parent="1">
          <mxGeometry x="720" y="50" width="60" height="20" as="geometry" />
        </mxCell>
        <mxCell id="k97HtYrhLEBqJq5wz5jM-22" value="&lt;font color=&quot;#6c8ebf&quot;&gt;pass parameters&lt;/font&gt;" style="text;html=1;align=center;verticalAlign=middle;resizable=0;points=[];autosize=1;" vertex="1" parent="1">
          <mxGeometry x="380" y="80" width="110" height="20" as="geometry" />
        </mxCell>
        <mxCell id="k97HtYrhLEBqJq5wz5jM-23" value="hurd" style="rounded=1;whiteSpace=wrap;html=1;fillColor=#f5f5f5;strokeColor=#666666;fontColor=#333333;" vertex="1" parent="1">
          <mxGeometry x="530" y="20" width="40" height="20" as="geometry" />
        </mxCell>
        <mxCell id="k97HtYrhLEBqJq5wz5jM-24" value="&lt;b&gt;常见&lt;br&gt;实例&lt;/b&gt;" style="text;html=1;align=center;verticalAlign=middle;resizable=0;points=[];autosize=1;" vertex="1" parent="1">
          <mxGeometry x="40" y="40" width="40" height="30" as="geometry" />
        </mxCell>
      </root>
    </mxGraphModel>
  </diagram>
</mxfile>
